<?xml version="1.0"?>
<!-- Generated by SVGo -->
<svg width="560" height="220"
     xmlns="http://www.w3.org/2000/svg"
     xmlns:xlink="http://www.w3.org/1999/xlink">
<rect x="0" y="0" width="560" height="220" style="fill:rgba(20,20,20,1)" />
<line x1="150" y1="40" x2="150" y2="190" style="stroke:#606060;stroke-width:2" />
<line x1="150" y1="35" x2="150" y2="45" style="stroke:grey;stroke-width:1" />
<text x="150" y="30" style="font-size:10px; font-family:monospace; text-anchor:middle; fill:white; text-shadow:1px 1px 1px black;" >0</text>
<line x1="170" y1="40" x2="170" y2="190" style="stroke:#303030;stroke-width:1;stroke-dasharray:1,1" />
<line x1="170" y1="35" x2="170" y2="45" style="stroke:grey;stroke-width:1" />
<text x="170" y="30" style="font-size:10px; font-family:monospace; text-anchor:middle; fill:white; text-shadow:1px 1px 1px black;" >1</text>
<line x1="190" y1="40" x2="190" y2="190" style="stroke:#303030;stroke-width:1;stroke-dasharray:1,1" />
<line x1="190" y1="35" x2="190" y2="45" style="stroke:grey;stroke-width:1" />
<text x="190" y="30" style="font-size:10px; font-family:monospace; text-anchor:middle; fill:white; text-shadow:1px 1px 1px black;" >2</text>
<line x1="210" y1="40" x2="210" y2="190" style="stroke:#303030;stroke-width:1;stroke-dasharray:1,1" />
<line x1="210" y1="35" x2="210" y2="45" style="stroke:grey;stroke-width:1" />
<text x="210" y="30" style="font-size:10px; font-family:monospace; text-anchor:middle; fill:white; text-shadow:1px 1px 1px black;" >3</text>
<line x1="230" y1="40" x2="230" y2="190" style="stroke:#303030;stroke-width:1;stroke-dasharray:1,1" />
<line x1="230" y1="35" x2="230" y2="45" style="stroke:grey;stroke-width:1" />
<text x="230" y="30" style="font-size:10px; font-family:monospace; text-anchor:middle; fill:white; text-shadow:1px 1px 1px black;" >4</text>
<line x1="250" y1="40" x2="250" y2="190" style="stroke:#303030;stroke-width:1;stroke-dasharray:1,1" />
<line x1="250" y1="35" x2="250" y2="45" style="stroke:grey;stroke-width:1" />
<text x="250" y="30" style="font-size:10px; font-family:monospace; text-anchor:middle; fill:white; text-shadow:1px 1px 1px black;" >5</text>
<line x1="270" y1="40" x2="270" y2="190" style="stroke:#303030;stroke-width:1;stroke-dasharray:1,1" />
<line x1="270" y1="35" x2="270" y2="45" style="stroke:grey;stroke-width:1" />
<text x="270" y="30" style="font-size:10px; font-family:monospace; text-anchor:middle; fill:white; text-shadow:1px 1px 1px black;" >6</text>
<line x1="290" y1="40" x2="290" y2="190" style="stroke:#303030;stroke-width:1;stroke-dasharray:1,1" />
<line x1="290" y1="35" x2="290" y2="45" style="stroke:grey;stroke-width:1" />
<text x="290" y="30" style="font-size:10px; font-family:monospace; text-anchor:middle; fill:white; text-shadow:1px 1px 1px black;" >7</text>
<line x1="310" y1="40" x2="310" y2="190" style="stroke:#303030;stroke-width:1;stroke-dasharray:1,1" />
<line x1="310" y1="35" x2="310" y2="45" style="stroke:grey;stroke-width:1" />
<text x="310" y="30" style="font-size:10px; font-family:monospace; text-anchor:middle; fill:white; text-shadow:1px 1px 1px black;" >8</text>
<line x1="330" y1="40" x2="330" y2="190" style="stroke:#303030;stroke-width:1;stroke-dasharray:1,1" />
<line x1="330" y1="35" x2="330" y2="45" style="stroke:grey;stroke-width:1" />
<text x="330" y="30" style="font-size:10px; font-family:monospace; text-anchor:middle; fill:white; text-shadow:1px 1px 1px black;" >9</text>
<line x1="350" y1="40" x2="350" y2="190" style="stroke:#303030;stroke-width:1;stroke-dasharray:1,1" />
<line x1="350" y1="35" x2="350" y2="45" style="stroke:grey;stroke-width:1" />
<text x="350" y="30" style="font-size:10px; font-family:monospace; text-anchor:middle; fill:white; text-shadow:1px 1px 1px black;" >10</text>
<line x1="370" y1="40" x2="370" y2="190" style="stroke:#303030;stroke-width:1;stroke-dasharray:1,1" />
<line x1="370" y1="35" x2="370" y2="45" style="stroke:grey;stroke-width:1" />
<text x="370" y="30" style="font-size:10px; font-family:monospace; text-anchor:middle; fill:white; text-shadow:1px 1px 1px black;" >11</text>
<line x1="390" y1="40" x2="390" y2="190" style="stroke:#303030;stroke-width:1;stroke-dasharray:1,1" />
<line x1="390" y1="35" x2="390" y2="45" style="stroke:grey;stroke-width:1" />
<text x="390" y="30" style="font-size:10px; font-family:monospace; text-anchor:middle; fill:white; text-shadow:1px 1px 1px black;" >12</text>
<line x1="410" y1="40" x2="410" y2="190" style="stroke:#303030;stroke-width:1;stroke-dasharray:1,1" />
<line x1="410" y1="35" x2="410" y2="45" style="stroke:grey;stroke-width:1" />
<text x="410" y="30" style="font-size:10px; font-family:monospace; text-anchor:middle; fill:white; text-shadow:1px 1px 1px black;" >13</text>
<line x1="430" y1="40" x2="430" y2="190" style="stroke:#303030;stroke-width:1;stroke-dasharray:1,1" />
<line x1="430" y1="35" x2="430" y2="45" style="stroke:grey;stroke-width:1" />
<text x="430" y="30" style="font-size:10px; font-family:monospace; text-anchor:middle; fill:white; text-shadow:1px 1px 1px black;" >14</text>
<line x1="450" y1="40" x2="450" y2="190" style="stroke:#303030;stroke-width:1;stroke-dasharray:1,1" />
<line x1="450" y1="35" x2="450" y2="45" style="stroke:grey;stroke-width:1" />
<text x="450" y="30" style="font-size:10px; font-family:monospace; text-anchor:middle; fill:white; text-shadow:1px 1px 1px black;" >15</text>
<line x1="470" y1="40" x2="470" y2="190" style="stroke:#303030;stroke-width:1;stroke-dasharray:1,1" />
<line x1="470" y1="35" x2="470" y2="45" style="stroke:grey;stroke-width:1" />
<text x="470" y="30" style="font-size:10px; font-family:monospace; text-anchor:middle; fill:white; text-shadow:1px 1px 1px black;" >16</text>
<line x1="490" y1="40" x2="490" y2="190" style="stroke:#303030;stroke-width:1;stroke-dasharray:1,1" />
<line x1="490" y1="35" x2="490" y2="45" style="stroke:grey;stroke-width:1" />
<text x="490" y="30" style="font-size:10px; font-family:monospace; text-anchor:middle; fill:white; text-shadow:1px 1px 1px black;" >17</text>
<line x1="510" y1="40" x2="510" y2="190" style="stroke:#303030;stroke-width:1;stroke-dasharray:1,1" />
<line x1="510" y1="35" x2="510" y2="45" style="stroke:grey;stroke-width:1" />
<text x="510" y="30" style="font-size:10px; font-family:monospace; text-anchor:middle; fill:white; text-shadow:1px 1px 1px black;" >18</text>
<line x1="530" y1="40" x2="530" y2="190" style="stroke:#303030;stroke-width:1;stroke-dasharray:1,1" />
<line x1="530" y1="35" x2="530" y2="45" style="stroke:grey;stroke-width:1" />
<text x="530" y="30" style="font-size:10px; font-family:monospace; text-anchor:middle; fill:white; text-shadow:1px 1px 1px black;" >19</text>
<text x="10" y="60" style="font-family:monospace; font-size:12px; fill:white; text-shadow:1px 1px 1px black;" >blink</text>
<line x1="150" y1="51" x2="170" y2="51" style="stroke:rgba(0,0,0,0.5);stroke-width:1;" />
<line x1="150" y1="50" x2="170" y2="50" style="stroke:green;stroke-width:1;" />
<line x1="170" y1="51" x2="190" y2="51" style="stroke:rgba(0,0,0,0.5);stroke-width:1;" />
<line x1="170" y1="50" x2="190" y2="50" style="stroke:green;stroke-width:1;" />
<line x1="190" y1="51" x2="210" y2="51" style="stroke:rgba(0,0,0,0.5);stroke-width:1;" />
<line x1="190" y1="50" x2="210" y2="50" style="stroke:green;stroke-width:1;" />
<line x1="210" y1="51" x2="230" y2="51" style="stroke:rgba(0,0,0,0.5);stroke-width:1;" />
<line x1="210" y1="50" x2="230" y2="50" style="stroke:green;stroke-width:1;" />
<line x1="230" y1="51" x2="250" y2="51" style="stroke:rgba(0,0,0,0.5);stroke-width:1;" />
<line x1="230" y1="50" x2="250" y2="50" style="stroke:green;stroke-width:1;" />
<line x1="250" y1="51" x2="270" y2="51" style="stroke:rgba(0,0,0,0.5);stroke-width:1;" />
<line x1="250" y1="50" x2="270" y2="50" style="stroke:green;stroke-width:1;" />
<line x1="270" y1="51" x2="290" y2="51" style="stroke:rgba(0,0,0,0.5);stroke-width:1;" />
<line x1="270" y1="50" x2="290" y2="50" style="stroke:green;stroke-width:1;" />
<line x1="290" y1="51" x2="310" y2="51" style="stroke:rgba(0,0,0,0.5);stroke-width:1;" />
<line x1="290" y1="50" x2="310" y2="50" style="stroke:green;stroke-width:1;" />
<line x1="310" y1="51" x2="330" y2="51" style="stroke:rgba(0,0,0,0.5);stroke-width:1;" />
<line x1="310" y1="50" x2="330" y2="50" style="stroke:green;stroke-width:1;" />
<line x1="330" y1="51" x2="350" y2="51" style="stroke:rgba(0,0,0,0.5);stroke-width:1;" />
<line x1="330" y1="50" x2="350" y2="50" style="stroke:green;stroke-width:1;" />
<line x1="350" y1="51" x2="370" y2="51" style="stroke:rgba(0,0,0,0.5);stroke-width:1;" />
<line x1="350" y1="50" x2="370" y2="50" style="stroke:green;stroke-width:1;" />
<line x1="370" y1="51" x2="390" y2="51" style="stroke:rgba(0,0,0,0.5);stroke-width:1;" />
<line x1="370" y1="50" x2="390" y2="50" style="stroke:green;stroke-width:1;" />
<line x1="390" y1="51" x2="410" y2="51" style="stroke:rgba(0,0,0,0.5);stroke-width:1;" />
<line x1="390" y1="50" x2="410" y2="50" style="stroke:green;stroke-width:1;" />
<line x1="410" y1="51" x2="430" y2="51" style="stroke:rgba(0,0,0,0.5);stroke-width:1;" />
<line x1="410" y1="50" x2="430" y2="50" style="stroke:green;stroke-width:1;" />
<line x1="430" y1="51" x2="450" y2="51" style="stroke:rgba(0,0,0,0.5);stroke-width:1;" />
<line x1="430" y1="50" x2="450" y2="50" style="stroke:green;stroke-width:1;" />
<line x1="450" y1="51" x2="470" y2="51" style="stroke:rgba(0,0,0,0.5);stroke-width:1;" />
<line x1="450" y1="50" x2="470" y2="50" style="stroke:green;stroke-width:1;" />
<line x1="471" y1="50" x2="471" y2="70" style="stroke:rgba(0,0,0,0.5);stroke-width:1;" />
<line x1="470" y1="50" x2="470" y2="70" style="stroke:green;stroke-width:1;" />
<line x1="470" y1="71" x2="490" y2="71" style="stroke:rgba(0,0,0,0.5);stroke-width:1;" />
<line x1="470" y1="70" x2="490" y2="70" style="stroke:green;stroke-width:1;" />
<line x1="490" y1="71" x2="510" y2="71" style="stroke:rgba(0,0,0,0.5);stroke-width:1;" />
<line x1="490" y1="70" x2="510" y2="70" style="stroke:green;stroke-width:1;" />
<line x1="510" y1="71" x2="530" y2="71" style="stroke:rgba(0,0,0,0.5);stroke-width:1;" />
<line x1="510" y1="70" x2="530" y2="70" style="stroke:green;stroke-width:1;" />
<text x="10" y="90" style="font-family:monospace; font-size:12px; fill:white; text-shadow:1px 1px 1px black;" >clk</text>
<line x1="150" y1="81" x2="170" y2="81" style="stroke:rgba(0,0,0,0.5);stroke-width:1;" />
<line x1="150" y1="80" x2="170" y2="80" style="stroke:green;stroke-width:1;" />
<line x1="171" y1="80" x2="171" y2="100" style="stroke:rgba(0,0,0,0.5);stroke-width:1;" />
<line x1="170" y1="80" x2="170" y2="100" style="stroke:green;stroke-width:1;" />
<line x1="170" y1="101" x2="190" y2="101" style="stroke:rgba(0,0,0,0.5);stroke-width:1;" />
<line x1="170" y1="100" x2="190" y2="100" style="stroke:green;stroke-width:1;" />
<line x1="191" y1="100" x2="191" y2="80" style="stroke:rgba(0,0,0,0.5);stroke-width:1;" />
<line x1="190" y1="100" x2="190" y2="80" style="stroke:green;stroke-width:1;" />
<line x1="190" y1="81" x2="210" y2="81" style="stroke:rgba(0,0,0,0.5);stroke-width:1;" />
<line x1="190" y1="80" x2="210" y2="80" style="stroke:green;stroke-width:1;" />
<line x1="211" y1="80" x2="211" y2="100" style="stroke:rgba(0,0,0,0.5);stroke-width:1;" />
<line x1="210" y1="80" x2="210" y2="100" style="stroke:green;stroke-width:1;" />
<line x1="210" y1="101" x2="230" y2="101" style="stroke:rgba(0,0,0,0.5);stroke-width:1;" />
<line x1="210" y1="100" x2="230" y2="100" style="stroke:green;stroke-width:1;" />
<line x1="231" y1="100" x2="231" y2="80" style="stroke:rgba(0,0,0,0.5);stroke-width:1;" />
<line x1="230" y1="100" x2="230" y2="80" style="stroke:green;stroke-width:1;" />
<line x1="230" y1="81" x2="250" y2="81" style="stroke:rgba(0,0,0,0.5);stroke-width:1;" />
<line x1="230" y1="80" x2="250" y2="80" style="stroke:green;stroke-width:1;" />
<line x1="251" y1="80" x2="251" y2="100" style="stroke:rgba(0,0,0,0.5);stroke-width:1;" />
<line x1="250" y1="80" x2="250" y2="100" style="stroke:green;stroke-width:1;" />
<line x1="250" y1="101" x2="270" y2="101" style="stroke:rgba(0,0,0,0.5);stroke-width:1;" />
<line x1="250" y1="100" x2="270" y2="100" style="stroke:green;stroke-width:1;" />
<line x1="271" y1="100" x2="271" y2="80" style="stroke:rgba(0,0,0,0.5);stroke-width:1;" />
<line x1="270" y1="100" x2="270" y2="80" style="stroke:green;stroke-width:1;" />
<line x1="270" y1="81" x2="290" y2="81" style="stroke:rgba(0,0,0,0.5);stroke-width:1;" />
<line x1="270" y1="80" x2="290" y2="80" style="stroke:green;stroke-width:1;" />
<line x1="291" y1="80" x2="291" y2="100" style="stroke:rgba(0,0,0,0.5);stroke-width:1;" />
<line x1="290" y1="80" x2="290" y2="100" style="stroke:green;stroke-width:1;" />
<line x1="290" y1="101" x2="310" y2="101" style="stroke:rgba(0,0,0,0.5);stroke-width:1;" />
<line x1="290" y1="100" x2="310" y2="100" style="stroke:green;stroke-width:1;" />
<line x1="311" y1="100" x2="311" y2="80" style="stroke:rgba(0,0,0,0.5);stroke-width:1;" />
<line x1="310" y1="100" x2="310" y2="80" style="stroke:green;stroke-width:1;" />
<line x1="310" y1="81" x2="330" y2="81" style="stroke:rgba(0,0,0,0.5);stroke-width:1;" />
<line x1="310" y1="80" x2="330" y2="80" style="stroke:green;stroke-width:1;" />
<line x1="331" y1="80" x2="331" y2="100" style="stroke:rgba(0,0,0,0.5);stroke-width:1;" />
<line x1="330" y1="80" x2="330" y2="100" style="stroke:green;stroke-width:1;" />
<line x1="330" y1="101" x2="350" y2="101" style="stroke:rgba(0,0,0,0.5);stroke-width:1;" />
<line x1="330" y1="100" x2="350" y2="100" style="stroke:green;stroke-width:1;" />
<line x1="351" y1="100" x2="351" y2="80" style="stroke:rgba(0,0,0,0.5);stroke-width:1;" />
<line x1="350" y1="100" x2="350" y2="80" style="stroke:green;stroke-width:1;" />
<line x1="350" y1="81" x2="370" y2="81" style="stroke:rgba(0,0,0,0.5);stroke-width:1;" />
<line x1="350" y1="80" x2="370" y2="80" style="stroke:green;stroke-width:1;" />
<line x1="371" y1="80" x2="371" y2="100" style="stroke:rgba(0,0,0,0.5);stroke-width:1;" />
<line x1="370" y1="80" x2="370" y2="100" style="stroke:green;stroke-width:1;" />
<line x1="370" y1="101" x2="390" y2="101" style="stroke:rgba(0,0,0,0.5);stroke-width:1;" />
<line x1="370" y1="100" x2="390" y2="100" style="stroke:green;stroke-width:1;" />
<line x1="391" y1="100" x2="391" y2="80" style="stroke:rgba(0,0,0,0.5);stroke-width:1;" />
<line x1="390" y1="100" x2="390" y2="80" style="stroke:green;stroke-width:1;" />
<line x1="390" y1="81" x2="410" y2="81" style="stroke:rgba(0,0,0,0.5);stroke-width:1;" />
<line x1="390" y1="80" x2="410" y2="80" style="stroke:green;stroke-width:1;" />
<line x1="411" y1="80" x2="411" y2="100" style="stroke:rgba(0,0,0,0.5);stroke-width:1;" />
<line x1="410" y1="80" x2="410" y2="100" style="stroke:green;stroke-width:1;" />
<line x1="410" y1="101" x2="430" y2="101" style="stroke:rgba(0,0,0,0.5);stroke-width:1;" />
<line x1="410" y1="100" x2="430" y2="100" style="stroke:green;stroke-width:1;" />
<line x1="431" y1="100" x2="431" y2="80" style="stroke:rgba(0,0,0,0.5);stroke-width:1;" />
<line x1="430" y1="100" x2="430" y2="80" style="stroke:green;stroke-width:1;" />
<line x1="430" y1="81" x2="450" y2="81" style="stroke:rgba(0,0,0,0.5);stroke-width:1;" />
<line x1="430" y1="80" x2="450" y2="80" style="stroke:green;stroke-width:1;" />
<line x1="451" y1="80" x2="451" y2="100" style="stroke:rgba(0,0,0,0.5);stroke-width:1;" />
<line x1="450" y1="80" x2="450" y2="100" style="stroke:green;stroke-width:1;" />
<line x1="450" y1="101" x2="470" y2="101" style="stroke:rgba(0,0,0,0.5);stroke-width:1;" />
<line x1="450" y1="100" x2="470" y2="100" style="stroke:green;stroke-width:1;" />
<line x1="471" y1="100" x2="471" y2="80" style="stroke:rgba(0,0,0,0.5);stroke-width:1;" />
<line x1="470" y1="100" x2="470" y2="80" style="stroke:green;stroke-width:1;" />
<line x1="470" y1="81" x2="490" y2="81" style="stroke:rgba(0,0,0,0.5);stroke-width:1;" />
<line x1="470" y1="80" x2="490" y2="80" style="stroke:green;stroke-width:1;" />
<line x1="491" y1="80" x2="491" y2="100" style="stroke:rgba(0,0,0,0.5);stroke-width:1;" />
<line x1="490" y1="80" x2="490" y2="100" style="stroke:green;stroke-width:1;" />
<line x1="490" y1="101" x2="510" y2="101" style="stroke:rgba(0,0,0,0.5);stroke-width:1;" />
<line x1="490" y1="100" x2="510" y2="100" style="stroke:green;stroke-width:1;" />
<line x1="511" y1="100" x2="511" y2="80" style="stroke:rgba(0,0,0,0.5);stroke-width:1;" />
<line x1="510" y1="100" x2="510" y2="80" style="stroke:green;stroke-width:1;" />
<line x1="510" y1="81" x2="530" y2="81" style="stroke:rgba(0,0,0,0.5);stroke-width:1;" />
<line x1="510" y1="80" x2="530" y2="80" style="stroke:green;stroke-width:1;" />
<line x1="531" y1="80" x2="531" y2="100" style="stroke:rgba(0,0,0,0.5);stroke-width:1;" />
<line x1="530" y1="80" x2="530" y2="100" style="stroke:green;stroke-width:1;" />
<text x="10" y="120" style="font-family:monospace; font-size:12px; fill:white; text-shadow:1px 1px 1px black;" >counter</text>
<polygon points="150,110 170,110 170,125 150,125" style="fill:cyan;fill-opacity:0.1" />
<line x1="150" y1="111" x2="170" y2="111" style="stroke:rgba(0,0,0,0.5);stroke-width:1;" />
<line x1="150" y1="110" x2="170" y2="110" style="stroke:cyan;stroke-width:1" />
<line x1="150" y1="126" x2="170" y2="126" style="stroke:rgba(0,0,0,0.5);stroke-width:1;" />
<line x1="150" y1="125" x2="170" y2="125" style="stroke:cyan;stroke-width:1" />
<text x="151" y="120" style="font-size:10px; font-family:monospace; text-anchor:start; fill:white; text-shadow:1px 1px 1px black;" >001</text>
<polygon points="170,110 190,110 190,125 170,125" style="fill:cyan;fill-opacity:0.1" />
<line x1="171" y1="110" x2="191" y2="125" style="stroke:rgba(0,0,0,0.5);stroke-width:1;" />
<line x1="170" y1="110" x2="190" y2="125" style="stroke:cyan;stroke-width:1" />
<line x1="171" y1="125" x2="191" y2="110" style="stroke:rgba(0,0,0,0.5);stroke-width:1;" />
<line x1="170" y1="125" x2="190" y2="110" style="stroke:cyan;stroke-width:1" />
<polygon points="190,110 210,110 210,125 190,125" style="fill:cyan;fill-opacity:0.1" />
<line x1="190" y1="111" x2="210" y2="111" style="stroke:rgba(0,0,0,0.5);stroke-width:1;" />
<line x1="190" y1="110" x2="210" y2="110" style="stroke:cyan;stroke-width:1" />
<line x1="190" y1="126" x2="210" y2="126" style="stroke:rgba(0,0,0,0.5);stroke-width:1;" />
<line x1="190" y1="125" x2="210" y2="125" style="stroke:cyan;stroke-width:1" />
<text x="191" y="120" style="font-size:10px; font-family:monospace; text-anchor:start; fill:white; text-shadow:1px 1px 1px black;" >010</text>
<polygon points="210,110 230,110 230,125 210,125" style="fill:cyan;fill-opacity:0.1" />
<line x1="211" y1="110" x2="231" y2="125" style="stroke:rgba(0,0,0,0.5);stroke-width:1;" />
<line x1="210" y1="110" x2="230" y2="125" style="stroke:cyan;stroke-width:1" />
<line x1="211" y1="125" x2="231" y2="110" style="stroke:rgba(0,0,0,0.5);stroke-width:1;" />
<line x1="210" y1="125" x2="230" y2="110" style="stroke:cyan;stroke-width:1" />
<polygon points="230,110 250,110 250,125 230,125" style="fill:cyan;fill-opacity:0.1" />
<line x1="230" y1="111" x2="250" y2="111" style="stroke:rgba(0,0,0,0.5);stroke-width:1;" />
<line x1="230" y1="110" x2="250" y2="110" style="stroke:cyan;stroke-width:1" />
<line x1="230" y1="126" x2="250" y2="126" style="stroke:rgba(0,0,0,0.5);stroke-width:1;" />
<line x1="230" y1="125" x2="250" y2="125" style="stroke:cyan;stroke-width:1" />
<text x="231" y="120" style="font-size:10px; font-family:monospace; text-anchor:start; fill:white; text-shadow:1px 1px 1px black;" >011</text>
<polygon points="250,110 270,110 270,125 250,125" style="fill:cyan;fill-opacity:0.1" />
<line x1="251" y1="110" x2="271" y2="125" style="stroke:rgba(0,0,0,0.5);stroke-width:1;" />
<line x1="250" y1="110" x2="270" y2="125" style="stroke:cyan;stroke-width:1" />
<line x1="251" y1="125" x2="271" y2="110" style="stroke:rgba(0,0,0,0.5);stroke-width:1;" />
<line x1="250" y1="125" x2="270" y2="110" style="stroke:cyan;stroke-width:1" />
<polygon points="270,110 290,110 290,125 270,125" style="fill:cyan;fill-opacity:0.1" />
<line x1="270" y1="111" x2="290" y2="111" style="stroke:rgba(0,0,0,0.5);stroke-width:1;" />
<line x1="270" y1="110" x2="290" y2="110" style="stroke:cyan;stroke-width:1" />
<line x1="270" y1="126" x2="290" y2="126" style="stroke:rgba(0,0,0,0.5);stroke-width:1;" />
<line x1="270" y1="125" x2="290" y2="125" style="stroke:cyan;stroke-width:1" />
<text x="271" y="120" style="font-size:10px; font-family:monospace; text-anchor:start; fill:white; text-shadow:1px 1px 1px black;" >100</text>
<polygon points="290,110 310,110 310,125 290,125" style="fill:cyan;fill-opacity:0.1" />
<line x1="291" y1="110" x2="311" y2="125" style="stroke:rgba(0,0,0,0.5);stroke-width:1;" />
<line x1="290" y1="110" x2="310" y2="125" style="stroke:cyan;stroke-width:1" />
<line x1="291" y1="125" x2="311" y2="110" style="stroke:rgba(0,0,0,0.5);stroke-width:1;" />
<line x1="290" y1="125" x2="310" y2="110" style="stroke:cyan;stroke-width:1" />
<polygon points="310,110 330,110 330,125 310,125" style="fill:cyan;fill-opacity:0.1" />
<line x1="310" y1="111" x2="330" y2="111" style="stroke:rgba(0,0,0,0.5);stroke-width:1;" />
<line x1="310" y1="110" x2="330" y2="110" style="stroke:cyan;stroke-width:1" />
<line x1="310" y1="126" x2="330" y2="126" style="stroke:rgba(0,0,0,0.5);stroke-width:1;" />
<line x1="310" y1="125" x2="330" y2="125" style="stroke:cyan;stroke-width:1" />
<text x="311" y="120" style="font-size:10px; font-family:monospace; text-anchor:start; fill:white; text-shadow:1px 1px 1px black;" >101</text>
<polygon points="330,110 350,110 350,125 330,125" style="fill:cyan;fill-opacity:0.1" />
<line x1="331" y1="110" x2="351" y2="125" style="stroke:rgba(0,0,0,0.5);stroke-width:1;" />
<line x1="330" y1="110" x2="350" y2="125" style="stroke:cyan;stroke-width:1" />
<line x1="331" y1="125" x2="351" y2="110" style="stroke:rgba(0,0,0,0.5);stroke-width:1;" />
<line x1="330" y1="125" x2="350" y2="110" style="stroke:cyan;stroke-width:1" />
<polygon points="350,110 370,110 370,125 350,125" style="fill:cyan;fill-opacity:0.1" />
<line x1="350" y1="111" x2="370" y2="111" style="stroke:rgba(0,0,0,0.5);stroke-width:1;" />
<line x1="350" y1="110" x2="370" y2="110" style="stroke:cyan;stroke-width:1" />
<line x1="350" y1="126" x2="370" y2="126" style="stroke:rgba(0,0,0,0.5);stroke-width:1;" />
<line x1="350" y1="125" x2="370" y2="125" style="stroke:cyan;stroke-width:1" />
<text x="351" y="120" style="font-size:10px; font-family:monospace; text-anchor:start; fill:white; text-shadow:1px 1px 1px black;" >110</text>
<polygon points="370,110 390,110 390,125 370,125" style="fill:cyan;fill-opacity:0.1" />
<line x1="371" y1="110" x2="391" y2="125" style="stroke:rgba(0,0,0,0.5);stroke-width:1;" />
<line x1="370" y1="110" x2="390" y2="125" style="stroke:cyan;stroke-width:1" />
<line x1="371" y1="125" x2="391" y2="110" style="stroke:rgba(0,0,0,0.5);stroke-width:1;" />
<line x1="370" y1="125" x2="390" y2="110" style="stroke:cyan;stroke-width:1" />
<polygon points="390,110 410,110 410,125 390,125" style="fill:cyan;fill-opacity:0.1" />
<line x1="390" y1="111" x2="410" y2="111" style="stroke:rgba(0,0,0,0.5);stroke-width:1;" />
<line x1="390" y1="110" x2="410" y2="110" style="stroke:cyan;stroke-width:1" />
<line x1="390" y1="126" x2="410" y2="126" style="stroke:rgba(0,0,0,0.5);stroke-width:1;" />
<line x1="390" y1="125" x2="410" y2="125" style="stroke:cyan;stroke-width:1" />
<text x="391" y="120" style="font-size:10px; font-family:monospace; text-anchor:start; fill:white; text-shadow:1px 1px 1px black;" >111</text>
<polygon points="410,110 430,110 430,125 410,125" style="fill:cyan;fill-opacity:0.1" />
<line x1="411" y1="110" x2="431" y2="125" style="stroke:rgba(0,0,0,0.5);stroke-width:1;" />
<line x1="410" y1="110" x2="430" y2="125" style="stroke:cyan;stroke-width:1" />
<line x1="411" y1="125" x2="431" y2="110" style="stroke:rgba(0,0,0,0.5);stroke-width:1;" />
<line x1="410" y1="125" x2="430" y2="110" style="stroke:cyan;stroke-width:1" />
<polygon points="430,110 450,110 450,125 430,125" style="fill:cyan;fill-opacity:0.1" />
<line x1="430" y1="111" x2="450" y2="111" style="stroke:rgba(0,0,0,0.5);stroke-width:1;" />
<line x1="430" y1="110" x2="450" y2="110" style="stroke:cyan;stroke-width:1" />
<line x1="430" y1="126" x2="450" y2="126" style="stroke:rgba(0,0,0,0.5);stroke-width:1;" />
<line x1="430" y1="125" x2="450" y2="125" style="stroke:cyan;stroke-width:1" />
<text x="431" y="120" style="font-size:10px; font-family:monospace; text-anchor:start; fill:white; text-shadow:1px 1px 1px black;" >000</text>
<polygon points="450,110 470,110 470,125 450,125" style="fill:cyan;fill-opacity:0.1" />
<line x1="451" y1="110" x2="471" y2="125" style="stroke:rgba(0,0,0,0.5);stroke-width:1;" />
<line x1="450" y1="110" x2="470" y2="125" style="stroke:cyan;stroke-width:1" />
<line x1="451" y1="125" x2="471" y2="110" style="stroke:rgba(0,0,0,0.5);stroke-width:1;" />
<line x1="450" y1="125" x2="470" y2="110" style="stroke:cyan;stroke-width:1" />
<polygon points="470,110 490,110 490,125 470,125" style="fill:cyan;fill-opacity:0.1" />
<line x1="470" y1="111" x2="490" y2="111" style="stroke:rgba(0,0,0,0.5);stroke-width:1;" />
<line x1="470" y1="110" x2="490" y2="110" style="stroke:cyan;stroke-width:1" />
<line x1="470" y1="126" x2="490" y2="126" style="stroke:rgba(0,0,0,0.5);stroke-width:1;" />
<line x1="470" y1="125" x2="490" y2="125" style="stroke:cyan;stroke-width:1" />
<text x="471" y="120" style="font-size:10px; font-family:monospace; text-anchor:start; fill:white; text-shadow:1px 1px 1px black;" >001</text>
<polygon points="490,110 510,110 510,125 490,125" style="fill:cyan;fill-opacity:0.1" />
<line x1="491" y1="110" x2="511" y2="125" style="stroke:rgba(0,0,0,0.5);stroke-width:1;" />
<line x1="490" y1="110" x2="510" y2="125" style="stroke:cyan;stroke-width:1" />
<line x1="491" y1="125" x2="511" y2="110" style="stroke:rgba(0,0,0,0.5);stroke-width:1;" />
<line x1="490" y1="125" x2="510" y2="110" style="stroke:cyan;stroke-width:1" />
<polygon points="510,110 530,110 530,125 510,125" style="fill:cyan;fill-opacity:0.1" />
<line x1="510" y1="111" x2="530" y2="111" style="stroke:rgba(0,0,0,0.5);stroke-width:1;" />
<line x1="510" y1="110" x2="530" y2="110" style="stroke:cyan;stroke-width:1" />
<line x1="510" y1="126" x2="530" y2="126" style="stroke:rgba(0,0,0,0.5);stroke-width:1;" />
<line x1="510" y1="125" x2="530" y2="125" style="stroke:cyan;stroke-width:1" />
<text x="511" y="120" style="font-size:10px; font-family:monospace; text-anchor:start; fill:white; text-shadow:1px 1px 1px black;" >010</text>
<text x="10" y="150" style="font-family:monospace; font-size:12px; fill:white; text-shadow:1px 1px 1px black;" >rst</text>
<line x1="150" y1="161" x2="170" y2="161" style="stroke:rgba(0,0,0,0.5);stroke-width:1;" />
<line x1="150" y1="160" x2="170" y2="160" style="stroke:green;stroke-width:1;" />
<line x1="170" y1="161" x2="190" y2="161" style="stroke:rgba(0,0,0,0.5);stroke-width:1;" />
<line x1="170" y1="160" x2="190" y2="160" style="stroke:green;stroke-width:1;" />
<line x1="190" y1="161" x2="210" y2="161" style="stroke:rgba(0,0,0,0.5);stroke-width:1;" />
<line x1="190" y1="160" x2="210" y2="160" style="stroke:green;stroke-width:1;" />
<line x1="210" y1="161" x2="230" y2="161" style="stroke:rgba(0,0,0,0.5);stroke-width:1;" />
<line x1="210" y1="160" x2="230" y2="160" style="stroke:green;stroke-width:1;" />
<line x1="230" y1="161" x2="250" y2="161" style="stroke:rgba(0,0,0,0.5);stroke-width:1;" />
<line x1="230" y1="160" x2="250" y2="160" style="stroke:green;stroke-width:1;" />
<line x1="250" y1="161" x2="270" y2="161" style="stroke:rgba(0,0,0,0.5);stroke-width:1;" />
<line x1="250" y1="160" x2="270" y2="160" style="stroke:green;stroke-width:1;" />
<line x1="270" y1="161" x2="290" y2="161" style="stroke:rgba(0,0,0,0.5);stroke-width:1;" />
<line x1="270" y1="160" x2="290" y2="160" style="stroke:green;stroke-width:1;" />
<line x1="290" y1="161" x2="310" y2="161" style="stroke:rgba(0,0,0,0.5);stroke-width:1;" />
<line x1="290" y1="160" x2="310" y2="160" style="stroke:green;stroke-width:1;" />
<line x1="310" y1="161" x2="330" y2="161" style="stroke:rgba(0,0,0,0.5);stroke-width:1;" />
<line x1="310" y1="160" x2="330" y2="160" style="stroke:green;stroke-width:1;" />
<line x1="330" y1="161" x2="350" y2="161" style="stroke:rgba(0,0,0,0.5);stroke-width:1;" />
<line x1="330" y1="160" x2="350" y2="160" style="stroke:green;stroke-width:1;" />
<line x1="350" y1="161" x2="370" y2="161" style="stroke:rgba(0,0,0,0.5);stroke-width:1;" />
<line x1="350" y1="160" x2="370" y2="160" style="stroke:green;stroke-width:1;" />
<line x1="370" y1="161" x2="390" y2="161" style="stroke:rgba(0,0,0,0.5);stroke-width:1;" />
<line x1="370" y1="160" x2="390" y2="160" style="stroke:green;stroke-width:1;" />
<line x1="390" y1="161" x2="410" y2="161" style="stroke:rgba(0,0,0,0.5);stroke-width:1;" />
<line x1="390" y1="160" x2="410" y2="160" style="stroke:green;stroke-width:1;" />
<line x1="410" y1="161" x2="430" y2="161" style="stroke:rgba(0,0,0,0.5);stroke-width:1;" />
<line x1="410" y1="160" x2="430" y2="160" style="stroke:green;stroke-width:1;" />
<line x1="430" y1="161" x2="450" y2="161" style="stroke:rgba(0,0,0,0.5);stroke-width:1;" />
<line x1="430" y1="160" x2="450" y2="160" style="stroke:green;stroke-width:1;" />
<line x1="450" y1="161" x2="470" y2="161" style="stroke:rgba(0,0,0,0.5);stroke-width:1;" />
<line x1="450" y1="160" x2="470" y2="160" style="stroke:green;stroke-width:1;" />
<line x1="470" y1="161" x2="490" y2="161" style="stroke:rgba(0,0,0,0.5);stroke-width:1;" />
<line x1="470" y1="160" x2="490" y2="160" style="stroke:green;stroke-width:1;" />
<line x1="490" y1="161" x2="510" y2="161" style="stroke:rgba(0,0,0,0.5);stroke-width:1;" />
<line x1="490" y1="160" x2="510" y2="160" style="stroke:green;stroke-width:1;" />
<line x1="510" y1="161" x2="530" y2="161" style="stroke:rgba(0,0,0,0.5);stroke-width:1;" />
<line x1="510" y1="160" x2="530" y2="160" style="stroke:green;stroke-width:1;" />
</svg>
